<svg version="1.2" xmlns="http://www.w3.org/2000/svg" viewBox="23.000000000000007 0 92 54.35056010589928" width="92" height="55">
	<style>
		.s0 { fill: #000000 } 
	</style>
	<g>
		<g>
			<path class="s0" d="m114.36 45.8c0 4.72-3.83 8.55-8.56 8.55h-73.36c-4.72 0-8.55-3.83-8.55-8.55v-37.25c0-4.72 3.83-8.55 8.55-8.55h73.36c4.73 0 8.56 3.83 8.56 8.55 0 0 0 37.25 0 37.25z"/>
			<path class="s0" d="m110.96 8.55v37.25c0 2.84-2.31 5.15-5.16 5.15h-73.36c-2.84 0-5.15-2.31-5.15-5.15v-37.25c0-2.84 2.31-5.16 5.15-5.16h73.36c2.85 0 5.16 2.32 5.16 5.16z"/>
		</g>
	</g>
</svg>